# xmcd
#
# Track frame offsets: 
#        150
#        24954
#        41061
#        57596
#        77688
#        100389
#        116737
#        136499
#        156379
#        189499
#        211525
#        234012
#        256634
#        271639
#
# Disc length: 3962 seconds
#
# Revision: 0
# Processed by: cddbd v1.5.2PL0 Copyright (c) Steve Scherf et al.
# Submitted via: ExactAudioCopy v1.3
#
DISCID=b00f780e
DTITLE=Various Artist - Soul Bag Sampler, Mar 2011
DYEAR=2011
DGENRE=Blues
TTITLE0=Roy Gaines and His Orchestra - Rats in my kitchen
TTITLE1=Kenny Neal - Down in the swamp
TTITLE2=Chuck Brown feat. Marcus Miller - All for you
TTITLE3=Calvin Richardson - Thug livin'
TTITLE4=Buddy Guy feat. B.B. King - Stay around a little longer
TTITLE5=Aaron Neville - I know I've been changed
TTITLE6=The Rance Allen Group - Talk that talk (part. 1)
TTITLE7=Dumpstaphunk - Do ya
TTITLE8=Sugaray - Blind alley
TTITLE9=Marc-André Léger - Ramblin' highwayside v2
TTITLE10=Tony Joe White - Season man
TTITLE11=James Cotton - Heard you're getting married
TTITLE12=Daddy Mack Blues Band - Great recession blues
TTITLE13=Mel Brown - Love, lost and found
EXTD=
EXTT0=
EXTT1=
EXTT2=
EXTT3=
EXTT4=
EXTT5=
EXTT6=
EXTT7=
EXTT8=
EXTT9=
EXTT10=
EXTT11=
EXTT12=
EXTT13=
PLAYORDER=
